<?xml version="1.0" encoding="UTF-8" standalone="no"?>
<svg
   xmlns:dc="http://purl.org/dc/elements/1.1/"
   xmlns:cc="http://creativecommons.org/ns#"
   xmlns:rdf="http://www.w3.org/1999/02/22-rdf-syntax-ns#"
   xmlns:svg="http://www.w3.org/2000/svg"
   xmlns="http://www.w3.org/2000/svg"
   xmlns:sodipodi="http://sodipodi.sourceforge.net/DTD/sodipodi-0.dtd"
   xmlns:inkscape="http://www.inkscape.org/namespaces/inkscape"
   height="239"
   width="277"
   id="svg52"
   version="1.1"
   y="0px"
   x="0px"
   viewBox="0 0 277 239"
   data-name="Layer 1"
   sodipodi:docname="kindle.svg"
   inkscape:version="0.92.3 (2405546, 2018-03-11)"
   inkscape:export-filename="/home/giulia/Desktop/amtrex/kindle.png"
   inkscape:export-xdpi="300"
   inkscape:export-ydpi="300">
  <sodipodi:namedview
     pagecolor="#ffffff"
     bordercolor="#666666"
     borderopacity="1"
     objecttolerance="10"
     gridtolerance="10"
     guidetolerance="10"
     inkscape:pageopacity="0"
     inkscape:pageshadow="2"
     inkscape:window-width="1871"
     inkscape:window-height="1025"
     id="namedview25"
     showgrid="false"
     inkscape:zoom="0.9874477"
     inkscape:cx="122.80297"
     inkscape:cy="-2.0254237"
     inkscape:window-x="49"
     inkscape:window-y="27"
     inkscape:window-maximized="1"
     inkscape:current-layer="svg52" />
  <metadata
     id="metadata58">
    <rdf:RDF>
      <cc:Work
         rdf:about="">
        <dc:format>image/svg+xml</dc:format>
        <dc:type
           rdf:resource="http://purl.org/dc/dcmitype/StillImage" />
        <dc:title>17</dc:title>
      </cc:Work>
    </rdf:RDF>
  </metadata>
  <defs
     id="defs56" />
  <title
     id="title42">17</title>
  <g
     transform="translate(12.35728,-22.862558)"
     id="g4660" />
  <rect
     style="opacity:1;fill:#222e3d;fill-opacity:1;stroke:none;stroke-width:3.22970009;stroke-miterlimit:4;stroke-dasharray:none;stroke-opacity:0.94117647"
     id="rect5361"
     width="277"
     height="239"
     x="3.4179686e-07"
     y="0" />
  <g
     id="g995"
     transform="matrix(0.08186289,-0.02160239,0.02160239,0.08186289,105.93253,72.1025)"
     style="fill:#f99500;fill-opacity:1">
    <path
       inkscape:connector-curvature="0"
       class="cls-1"
       style="display:inline;fill:#f99500;fill-opacity:1;stroke-width:1.51906657"
       id="path21020"
       d="M 490.0657,156.02509 A 233.31585,223.66064 0 0 0 273.1338,-67.070374 v 31.47134 c 102.95811,8.016564 184.17958,90.88909 184.17958,191.624124 0,100.73505 -81.22147,183.60757 -184.17958,191.62414 v 31.47134 A 233.31585,223.66064 0 0 0 490.06574,156.02509 Z" />
    <path
       inkscape:connector-curvature="0"
       class="cls-1"
       style="display:inline;fill:#f99500;fill-opacity:1;stroke-width:1.51906657"
       id="path21022"
       d="m 56.201872,156.02509 c 0,-100.735034 81.221468,-183.607558 184.179558,-191.624122 v -31.471342 a 233.30034,223.64577 0 0 0 0,446.190934 V 347.64922 C 137.42334,339.63266 56.201872,256.76013 56.201872,156.02508 Z" />
    <path
       inkscape:connector-curvature="0"
       class="cls-1"
       style="display:inline;fill:#f99500;fill-opacity:1;stroke-width:1.51906657"
       id="path21024"
       d="M 176.94027,23.506385 A 159.65024,153.0435 0 0 0 111.0477,218.49182 l 28.57879,-15.8249 A 126.85134,121.6019 0 0 1 357.50484,82.076386 l 28.59429,-15.81003 A 159.65024,153.0435 0 0 0 176.94026,23.506385 Z" />
    <path
       inkscape:connector-curvature="0"
       class="cls-1"
       style="display:inline;fill:#f99500;fill-opacity:1;stroke-width:1.51906657"
       id="path21026"
       d="M 320.20657,261.37075 A 127.08407,121.82499 0 0 1 155.99491,229.9143 l -28.5943,15.81003 A 159.65024,153.0435 0 0 0 402.46755,93.558336 l -28.57879,15.765424 a 127.06855,121.81012 0 0 1 -53.68219,152.04699 z" />
    <path
       inkscape:connector-curvature="0"
       class="cls-1"
       style="display:inline;fill:#f99500;fill-opacity:1;stroke-width:1.51906657"
       id="path21028"
       d="M 299.72664,84.634546 A 85.969086,82.411466 0 0 0 191.86576,101.96163 l 29.23043,16.18185 a 53.201228,50.999624 0 0 1 87.69126,48.5307 l 29.23041,16.16698 A 85.969086,82.411466 0 0 0 299.72664,84.634546 Z" />
    <path
       inkscape:connector-curvature="0"
       class="cls-1"
       style="display:inline;fill:#f99500;fill-opacity:1;stroke-width:1.51906657"
       id="path21030"
       d="m 231.7085,200.19801 a 53.294318,51.088862 0 0 1 -25.42922,-54.85173 l -29.23041,-16.09262 a 85.953577,82.396595 0 0 0 146.1521,80.87955 l -29.24594,-16.18186 a 53.263289,51.059116 0 0 1 -62.24653,6.24666 z" />
  </g>
  <rect
     style="fill:#f99500;fill-opacity:1;stroke:none;stroke-width:6.04724407;stroke-linecap:round;stroke-linejoin:round;stroke-miterlimit:4;stroke-dasharray:none;stroke-opacity:1;paint-order:stroke fill markers"
     id="rect997-2"
     width="70.945084"
     height="4.0099397"
     x="71.706009"
     y="152.83514"
     transform="rotate(-15.260714)" />
  <rect
     style="fill:#f99500;fill-opacity:1;stroke:none;stroke-width:5.39410162;stroke-linecap:round;stroke-linejoin:round;stroke-miterlimit:4;stroke-dasharray:none;stroke-opacity:1;paint-order:stroke fill markers"
     id="rect997-9"
     width="56.447609"
     height="4.0099397"
     x="72.243683"
     y="173.7099"
     transform="rotate(-15.260714)" />
  <g
     transform="matrix(2.3290071,0.2101653,-0.2101653,2.3290071,30.664156,-0.65399895)"
     id="g8"
     style="fill:#f99500;fill-opacity:1;stroke:none;stroke-opacity:1">
    <g
       id="g6"
       style="fill:#f99500;fill-opacity:1;stroke:none;stroke-opacity:1">
      <path
         inkscape:connector-curvature="0"
         class="st0"
         d="m 48.6,73.2 c 1.4,-1.8 3,-2.4 3.3,-2.7 0.3,-0.2 2.1,-0.8 2.7,-1.3 0.6,-0.5 2.65119,-1.39524 1.45119,-4.09524 C 55.45119,63.70476 52.3,63.6 51.2,63.8 50.4,63.9 48.611074,63.859163 46.011074,64.659163 43.411074,65.459163 43.9,66.1 41.9,67.1 c -2,1 -6.405801,1.824679 -7.505801,2.724679 -0.965033,0.511387 -1.97146,1.948697 -2.347567,3.155449 C 31.772311,72.233378 30.483603,69.285683 29.8,67.2 c -0.653124,-1.727703 -1.653425,-5.224086 -4.568095,-4.233199 -1.1,0.8 -2.106425,3.285229 -2.106425,4.985229 0,1.7 6.73047,17.89678 6.73047,17.89678 l -4.09414,14.72613 15.613642,-1.408941 2.346807,-5.800046 c 0,0 2.484167,-1.459527 3.477741,-3.365953 0.528693,-1.031905 -0.5,-7.6 -1.3,-9.4 -0.8,-1.8 1.2,-5.6 2.7,-7.4 z M 88.4,67.1 64.6,6.1 C 63.9,4.4 62,3.5 60.3,4.2 L 17.9,20.7 C 16.2,21.4 15.3,23.3 16,25 l 16.7,42.9 c 1.7,-0.7 3.9,-1.4 5.7,-1.9 L 23.3,27.2 C 23,26.5 23.4,25.7 24.1,25.5 L 59,11.8 c 0.7,-0.3 1.5,0.1 1.7,0.8 l 18.7,47.9 c 0.3,0.7 -0.1,1.5 -0.8,1.7 l -28,10.9 c -1.7,2 -2.8,5.7 -2.7,7.3 0.1,1 0.7,3.4 1.2,5.4 L 86.5,71.2 c 1.7,-0.5 2.5,-2.4 1.9,-4.1 z"
         id="path4"
         style="fill:#f99500;fill-opacity:1;stroke:none;stroke-opacity:1" />
    </g>
  </g>
  <rect
     style="fill:#f99500;fill-opacity:1;stroke:none;stroke-width:6.04724407;stroke-linecap:round;stroke-linejoin:round;stroke-miterlimit:4;stroke-dasharray:none;stroke-opacity:1;paint-order:stroke fill markers"
     id="rect997"
     width="70.945084"
     height="4.0099397"
     x="71.872749"
     y="162.93895"
     transform="rotate(-15.260714)" />
  <rect
     style="fill:#f99500;fill-opacity:1;stroke:none;stroke-width:6.04724407;stroke-linecap:round;stroke-linejoin:round;stroke-miterlimit:4;stroke-dasharray:none;stroke-opacity:1;paint-order:stroke fill markers"
     id="rect997-6"
     width="70.945084"
     height="4.0099397"
     x="71.499359"
     y="142.88028"
     transform="rotate(-15.260714)" />
</svg>
