<?xml version="1.0" encoding="UTF-8" standalone="no"?>
<!-- Created with Inkscape (http://www.inkscape.org/) -->

<svg
   xmlns:dc="http://purl.org/dc/elements/1.1/"
   xmlns:cc="http://creativecommons.org/ns#"
   xmlns:rdf="http://www.w3.org/1999/02/22-rdf-syntax-ns#"
   xmlns:svg="http://www.w3.org/2000/svg"
   xmlns="http://www.w3.org/2000/svg"
   xmlns:sodipodi="http://sodipodi.sourceforge.net/DTD/sodipodi-0.dtd"
   xmlns:inkscape="http://www.inkscape.org/namespaces/inkscape"
   width="73.289581mm"
   height="63.235416mm"
   viewBox="0 0 73.289581 63.235416"
   version="1.1"
   id="svg8"
   sodipodi:docname="cart.svg"
   inkscape:version="0.92.3 (2405546, 2018-03-11)"
   inkscape:export-filename="/home/giulia/Desktop/amtrex/cart.png"
   inkscape:export-xdpi="300"
   inkscape:export-ydpi="300">
  <defs
     id="defs2" />
  <sodipodi:namedview
     id="base"
     pagecolor="#ffffff"
     bordercolor="#666666"
     borderopacity="1.0"
     inkscape:pageopacity="0.0"
     inkscape:pageshadow="2"
     inkscape:zoom="2.8284271"
     inkscape:cx="228.99246"
     inkscape:cy="129.89497"
     inkscape:document-units="mm"
     inkscape:current-layer="layer1"
     showgrid="false"
     inkscape:window-width="1871"
     inkscape:window-height="1025"
     inkscape:window-x="49"
     inkscape:window-y="27"
     inkscape:window-maximized="1" />
  <metadata
     id="metadata5">
    <rdf:RDF>
      <cc:Work
         rdf:about="">
        <dc:format>image/svg+xml</dc:format>
        <dc:type
           rdf:resource="http://purl.org/dc/dcmitype/StillImage" />
        <dc:title />
      </cc:Work>
    </rdf:RDF>
  </metadata>
  <g
     inkscape:label="Layer 1"
     inkscape:groupmode="layer"
     id="layer1"
     transform="translate(0.35907528,-0.04299564)">
    <rect
       style="display:inline;opacity:1;fill:#222e3d;fill-opacity:1;stroke:none;stroke-width:0.85452479;stroke-miterlimit:4;stroke-dasharray:none;stroke-opacity:0.94117647"
       id="rect5361"
       width="73.289581"
       height="63.235416"
       x="-0.35907528"
       y="0.042995635"
       inkscape:export-xdpi="300"
       inkscape:export-ydpi="300" />
    <path
       inkscape:connector-curvature="0"
       d="m 9.0800556,14.494659 h 4.3732474 l 2.353584,7.060228 c 0.006,0.02036 0.0121,0.03952 0.02016,0.05928 l 5.324364,15.97368 2.182349,6.547046 c -2.083112,0.72708 -3.584249,2.706196 -3.584249,5.034174 0,2.941446 2.393061,5.334507 5.334507,5.334507 2.941466,0 5.334527,-2.393061 5.334527,-5.334507 0,-0.971947 -0.265674,-1.881472 -0.721778,-2.667263 h 13.44618 c -0.456104,0.785791 -0.721757,1.695316 -0.721757,2.667263 0,2.941446 2.393061,5.334507 5.334506,5.334507 2.941466,0 5.334527,-2.393061 5.334527,-5.334507 0,-2.941446 -2.393061,-5.334507 -5.334527,-5.334507 H 26.045301 c 0,0 -8.826404,-27.112664 -10.363849,-31.095417 -0.181894,-0.544659 -0.691386,-0.911667 -1.265376,-0.911667 H 9.0815476 c -0.7366971,0 -1.3336317,0.596935 -1.3336317,1.333632 0,0.736697 0.5969346,1.333612 1.3336317,1.333612 z M 27.75086,49.169003 c 0,1.470733 -1.196531,2.667263 -2.667264,2.667263 -1.470712,0 -2.667243,-1.19653 -2.667243,-2.667263 0,-1.470733 1.196531,-2.667264 2.667243,-2.667264 1.470733,0 2.667264,1.196531 2.667264,2.667264 z m 22.671678,0 c 0,1.470733 -1.19653,2.667263 -2.667263,2.667263 -1.470713,0 -2.667243,-1.19653 -2.667243,-2.667263 0,-1.470733 1.19653,-2.667264 2.667243,-2.667264 1.470733,0 2.667263,1.196531 2.667263,2.667264 z"
       id="path2"
       style="fill:#f99500;fill-opacity:1;stroke:#222e3d;stroke-width:1.333;stroke-opacity:1;stroke-miterlimit:4;stroke-dasharray:none"
       sodipodi:nodetypes="ccccccsssccssssccsssccssssssssss" />
    <path
       style="fill:none;stroke:#f99500;stroke-width:0.60000002;stroke-linecap:butt;stroke-linejoin:miter;stroke-miterlimit:4;stroke-dasharray:none;stroke-opacity:1"
       d="m 21.265441,15.891818 1.0342,10.218058 6.11049,10.456747 11.563137,-6.577749 -5.469413,-6.66819 -12.204214,2.789192 17.299012,3.953923 9.440356,7.192651 -20.628878,-0.689827 6.093724,-13.171015 z"
       id="path988"
       inkscape:connector-curvature="0"
       sodipodi:nodetypes="ccccccccccc" />
    <path
       style="fill:none;stroke:#f99500;stroke-width:0.60000002;stroke-linecap:butt;stroke-linejoin:miter;stroke-miterlimit:4;stroke-dasharray:none;stroke-opacity:1"
       d="m 21.265441,15.891818 20.356145,0.535906 -7.117731,6.89296 15.584085,-0.22477 -10.114672,6.89296 21.95258,-3.446481 0.44954,-12.437296 -12.137601,8.84097 11.463292,3.521404 L 49.039009,37.25645 50.08794,23.170837 41.621586,16.427724 62.300466,14.030173 49.039009,37.25645"
       id="path990"
       inkscape:connector-curvature="0"
       sodipodi:nodetypes="cccccccccccccc" />
    <circle
       style="fill:#f99500;fill-opacity:1;stroke:#222e3d;stroke-width:2;stroke-linecap:round;stroke-linejoin:round;stroke-miterlimit:4;stroke-dasharray:none;stroke-opacity:1;paint-order:stroke fill markers"
       id="path848"
       cx="21.340984"
       cy="15.843462"
       r="1.5415874" />
    <circle
       style="fill:#f99500;fill-opacity:1;stroke:#222e3d;stroke-width:2;stroke-linecap:round;stroke-linejoin:round;stroke-miterlimit:4;stroke-dasharray:none;stroke-opacity:1;paint-order:stroke fill markers"
       id="path848-5"
       cx="61.996643"
       cy="14.335449"
       r="1.1181289" />
    <circle
       style="fill:#f99500;fill-opacity:1;stroke:#222e3d;stroke-width:2;stroke-linecap:round;stroke-linejoin:round;stroke-miterlimit:4;stroke-dasharray:none;stroke-opacity:1;paint-order:stroke fill markers"
       id="path848-35"
       cx="61.485222"
       cy="26.329542"
       r="1.4834092" />
    <circle
       style="fill:#f99500;fill-opacity:1;stroke:#222e3d;stroke-width:2;stroke-linecap:round;stroke-linejoin:round;stroke-miterlimit:4;stroke-dasharray:none;stroke-opacity:1;paint-order:stroke fill markers"
       id="path848-62"
       cx="49.025711"
       cy="36.953861"
       r="1.6036869" />
    <circle
       style="fill:#f99500;fill-opacity:1;stroke:#222e3d;stroke-width:2;stroke-linecap:round;stroke-linejoin:round;stroke-miterlimit:4;stroke-dasharray:none;stroke-opacity:1;paint-order:stroke fill markers"
       id="path848-1"
       cx="23.003099"
       cy="26.257889"
       r="1.4834092" />
    <circle
       style="fill:#f99500;fill-opacity:1;stroke:#222e3d;stroke-width:2;stroke-linecap:round;stroke-linejoin:round;stroke-miterlimit:4;stroke-dasharray:none;stroke-opacity:1;paint-order:stroke fill markers"
       id="path848-2"
       cx="28.494106"
       cy="36.120922"
       r="1.6290342" />
    <circle
       style="fill:#f99500;fill-opacity:1;stroke:#222e3d;stroke-width:2;stroke-linecap:round;stroke-linejoin:round;stroke-miterlimit:4;stroke-dasharray:none;stroke-opacity:1;paint-order:stroke fill markers"
       id="path848-70"
       cx="39.89426"
       cy="29.836422"
       r="1.4834092" />
    <circle
       style="fill:#f99500;fill-opacity:1;stroke:#222e3d;stroke-width:2;stroke-linecap:round;stroke-linejoin:round;stroke-miterlimit:4;stroke-dasharray:none;stroke-opacity:1;paint-order:stroke fill markers"
       id="path848-93"
       cx="49.286121"
       cy="23.063461"
       r="1.8954883" />
    <circle
       style="fill:#f99500;fill-opacity:1;stroke:#222e3d;stroke-width:2;stroke-linecap:round;stroke-linejoin:round;stroke-miterlimit:4;stroke-dasharray:none;stroke-opacity:1;paint-order:stroke fill markers"
       id="path848-60"
       cx="41.372868"
       cy="16.636583"
       r="1.4834092" />
    <circle
       style="fill:#f99500;fill-opacity:1;stroke:#222e3d;stroke-width:2;stroke-linecap:round;stroke-linejoin:round;stroke-miterlimit:4;stroke-dasharray:none;stroke-opacity:1;paint-order:stroke fill markers"
       id="path848-5-6"
       cx="34.43898"
       cy="23.308161"
       r="1.3503191" />
  </g>
</svg>
