<?xml version="1.0" encoding="UTF-8" standalone="no"?>
<svg
   xmlns:dc="http://purl.org/dc/elements/1.1/"
   xmlns:cc="http://creativecommons.org/ns#"
   xmlns:rdf="http://www.w3.org/1999/02/22-rdf-syntax-ns#"
   xmlns:svg="http://www.w3.org/2000/svg"
   xmlns="http://www.w3.org/2000/svg"
   xmlns:sodipodi="http://sodipodi.sourceforge.net/DTD/sodipodi-0.dtd"
   xmlns:inkscape="http://www.inkscape.org/namespaces/inkscape"
   data-name="Layer 1"
   viewBox="0 0 277 239"
   x="0px"
   y="0px"
   version="1.1"
   id="svg52"
   sodipodi:docname="event.svg"
   width="277"
   height="239"
   inkscape:version="0.92.3 (2405546, 2018-03-11)"
   inkscape:export-filename="/home/giulia/Desktop/amtrex/event.png"
   inkscape:export-xdpi="300"
   inkscape:export-ydpi="300">
  <metadata
     id="metadata58">
    <rdf:RDF>
      <cc:Work
         rdf:about="">
        <dc:format>image/svg+xml</dc:format>
        <dc:type
           rdf:resource="http://purl.org/dc/dcmitype/StillImage" />
        <dc:title>17</dc:title>
      </cc:Work>
    </rdf:RDF>
  </metadata>
  <defs
     id="defs56" />
  <sodipodi:namedview
     pagecolor="#ffffff"
     bordercolor="#666666"
     borderopacity="1"
     objecttolerance="10"
     gridtolerance="10"
     guidetolerance="10"
     inkscape:pageopacity="0"
     inkscape:pageshadow="2"
     inkscape:window-width="1871"
     inkscape:window-height="1025"
     id="namedview54"
     showgrid="false"
     showguides="false"
     inkscape:snap-page="true"
     inkscape:zoom="3.2419441"
     inkscape:cx="142.1932"
     inkscape:cy="124.61456"
     inkscape:window-x="49"
     inkscape:window-y="27"
     inkscape:window-maximized="1"
     inkscape:current-layer="layer1"
     inkscape:measure-start="0,0"
     inkscape:measure-end="0,0" />
  <title
     id="title42">17</title>
  <g
     id="g4660"
     transform="translate(12.35728,-22.862558)" />
  <g
     inkscape:groupmode="layer"
     id="layer1"
     inkscape:label="Layer 1"
     style="display:inline"
     transform="translate(20.85965)">
    <rect
       style="opacity:1;fill:#222e3d;fill-opacity:1;stroke:none;stroke-width:3.22970009;stroke-miterlimit:4;stroke-dasharray:none;stroke-opacity:0.94117647"
       id="rect5361"
       width="277"
       height="239"
       x="-20.85965"
       y="0" />
    <path
       style="fill:none;fill-opacity:1;stroke:#222e3d;stroke-width:0.4423272;stroke-linecap:round;stroke-linejoin:round;stroke-miterlimit:4;stroke-dasharray:none;stroke-opacity:1;paint-order:stroke fill markers"
       d=""
       id="path1114"
       inkscape:connector-curvature="0"
       transform="translate(-20.85965)" />
    <path
       style="fill:none;fill-opacity:1;stroke:#222e3d;stroke-width:0.4423272;stroke-linecap:round;stroke-linejoin:round;stroke-miterlimit:4;stroke-dasharray:none;stroke-opacity:1;paint-order:stroke fill markers"
       d=""
       id="path1116"
       inkscape:connector-curvature="0"
       transform="translate(-20.85965)" />
    <path
       style="fill:none;fill-opacity:1;stroke:#222e3d;stroke-width:0.4423272;stroke-linecap:round;stroke-linejoin:round;stroke-miterlimit:4;stroke-dasharray:none;stroke-opacity:1;paint-order:stroke fill markers"
       d=""
       id="path1118"
       inkscape:connector-curvature="0"
       transform="translate(-20.85965)" />
    <path
       style="fill:none;fill-opacity:1;stroke:#222e3d;stroke-width:0.4423272;stroke-linecap:round;stroke-linejoin:round;stroke-miterlimit:4;stroke-dasharray:none;stroke-opacity:1;paint-order:stroke fill markers"
       d=""
       id="path1122"
       inkscape:connector-curvature="0"
       transform="translate(-20.85965)" />
    <path
       style="fill:none;fill-opacity:1;stroke:#222e3d;stroke-width:0.4423272;stroke-linecap:round;stroke-linejoin:round;stroke-miterlimit:4;stroke-dasharray:none;stroke-opacity:1;paint-order:stroke fill markers"
       d=""
       id="path1124"
       inkscape:connector-curvature="0"
       transform="translate(-20.85965)" />
    <path
       style="fill:none;fill-opacity:1;stroke:#222e3d;stroke-width:0.4423272;stroke-linecap:round;stroke-linejoin:round;stroke-miterlimit:4;stroke-dasharray:none;stroke-opacity:1;paint-order:stroke fill markers"
       d=""
       id="path1126"
       inkscape:connector-curvature="0"
       transform="translate(-20.85965)" />
    <path
       style="fill:none;fill-opacity:1;stroke:#222e3d;stroke-width:0.4423272;stroke-linecap:round;stroke-linejoin:round;stroke-miterlimit:4;stroke-dasharray:none;stroke-opacity:1;paint-order:stroke fill markers"
       d=""
       id="path1128"
       inkscape:connector-curvature="0"
       transform="translate(-20.85965)" />
    <path
       style="fill:none;fill-opacity:1;stroke:#222e3d;stroke-width:0.4423272;stroke-linecap:round;stroke-linejoin:round;stroke-miterlimit:4;stroke-dasharray:none;stroke-opacity:1;paint-order:stroke fill markers"
       d=""
       id="path1130"
       inkscape:connector-curvature="0"
       transform="translate(-20.85965)" />
    <g
       id="g995-9-3"
       transform="matrix(0.06143049,0.01767415,-0.01767415,0.06143049,54.290501,32.480802)"
       style="display:inline;fill:#f99500;fill-opacity:1">
      <path
         class="cls-1"
         inkscape:connector-curvature="0"
         style="display:inline;fill:#f99500;fill-opacity:1;stroke-width:1.51906657"
         id="path21020-20-1"
         d="M 490.0657,156.02509 A 233.31585,223.66064 0 0 0 273.1338,-67.070374 v 31.47134 c 102.95811,8.016564 184.17958,90.88909 184.17958,191.624124 0,100.73505 -81.22147,183.60757 -184.17958,191.62414 v 31.47134 A 233.31585,223.66064 0 0 0 490.06574,156.02509 Z" />
      <path
         class="cls-1"
         inkscape:connector-curvature="0"
         style="display:inline;fill:#f99500;fill-opacity:1;stroke-width:1.51906657"
         id="path21022-23-9"
         d="m 56.201872,156.02509 c 0,-100.735034 81.221468,-183.607558 184.179558,-191.624122 v -31.471342 a 233.30034,223.64577 0 0 0 0,446.190934 V 347.64922 C 137.42334,339.63266 56.201872,256.76013 56.201872,156.02508 Z" />
      <path
         class="cls-1"
         inkscape:connector-curvature="0"
         style="display:inline;fill:#f99500;fill-opacity:1;stroke-width:1.51906657"
         id="path21024-7-4"
         d="M 176.94027,23.506385 A 159.65024,153.0435 0 0 0 111.0477,218.49182 l 28.57879,-15.8249 A 126.85134,121.6019 0 0 1 357.50484,82.076386 l 28.59429,-15.81003 A 159.65024,153.0435 0 0 0 176.94026,23.506385 Z" />
      <path
         class="cls-1"
         inkscape:connector-curvature="0"
         style="display:inline;fill:#f99500;fill-opacity:1;stroke-width:1.51906657"
         id="path21026-5-7"
         d="M 320.20657,261.37075 A 127.08407,121.82499 0 0 1 155.99491,229.9143 l -28.5943,15.81003 A 159.65024,153.0435 0 0 0 402.46755,93.558336 l -28.57879,15.765424 a 127.06855,121.81012 0 0 1 -53.68219,152.04699 z" />
      <path
         class="cls-1"
         inkscape:connector-curvature="0"
         style="display:inline;fill:#f99500;fill-opacity:1;stroke-width:1.51906657"
         id="path21028-9-8"
         d="M 299.72664,84.634546 A 85.969086,82.411466 0 0 0 191.86576,101.96163 l 29.23043,16.18185 a 53.201228,50.999624 0 0 1 87.69126,48.5307 l 29.23041,16.16698 A 85.969086,82.411466 0 0 0 299.72664,84.634546 Z" />
      <path
         class="cls-1"
         inkscape:connector-curvature="0"
         style="display:inline;fill:#f99500;fill-opacity:1;stroke-width:1.51906657"
         id="path21030-2-4"
         d="m 231.7085,200.19801 a 53.294318,51.088862 0 0 1 -25.42922,-54.85173 l -29.23041,-16.09262 a 85.953577,82.396595 0 0 0 146.1521,80.87955 l -29.24594,-16.18186 a 53.263289,51.059116 0 0 1 -62.24653,6.24666 z" />
    </g>
    <g
       transform="matrix(2.5162952,0,0,2.5162952,-8.0627805,2.6144125)"
       id="g60"
       style="fill:#f99500;fill-opacity:1">
      <g
         id="g18"
         style="fill:#f99500;fill-opacity:1">
        <path
           inkscape:connector-curvature="0"
           d="m 91.694,94.245 c 0,-5.472 -4.451,-9.924 -9.923,-9.924 h -6.634 c -5.472,0 -9.923,4.452 -9.923,9.924 h 2.023 c 0,0 0,0 0,0 h 22.435 c 0,0 0,0 0,0 z"
           id="path6"
           style="fill:#f99500;fill-opacity:1" />
        <path
           inkscape:connector-curvature="0"
           d="m 78.455,81.709 c 4.803,0 8.71,-3.908 8.71,-8.711 0,-4.803 -3.907,-8.711 -8.71,-8.711 -4.803,0 -8.711,3.908 -8.711,8.711 0,4.803 3.908,8.711 8.711,8.711 z"
           id="path8"
           style="fill:#f99500;fill-opacity:1" />
        <path
           inkscape:connector-curvature="0"
           d="m 51.811,84.322 h -6.633 c -5.472,0 -9.924,4.452 -9.924,9.924 h 2.023 c 0,0 0,0 0,0 h 22.435 c 0,0 0,0 0,0 h 2.023 c -10e-4,-5.472 -4.453,-9.924 -9.924,-9.924 z"
           id="path10"
           style="fill:#f99500;fill-opacity:1" />
        <path
           inkscape:connector-curvature="0"
           d="m 48.494,81.709 c 4.803,0 8.711,-3.908 8.711,-8.711 0,-4.803 -3.908,-8.711 -8.711,-8.711 -4.803,0 -8.711,3.908 -8.711,8.711 0,4.803 3.908,8.711 8.711,8.711 z"
           id="path12"
           style="fill:#f99500;fill-opacity:1" />
        <path
           inkscape:connector-curvature="0"
           d="m 21.85,84.322 h -6.633 c -5.472,0 -9.923,4.452 -9.923,9.924 h 2.023 c 0,0 0,0 0,0 h 22.435 c 0,0 0,0 0,0 h 2.023 C 31.774,88.774 27.322,84.322 21.85,84.322 Z"
           id="path14"
           style="fill:#f99500;fill-opacity:1" />
        <path
           inkscape:connector-curvature="0"
           d="m 18.534,81.709 c 4.803,0 8.711,-3.908 8.711,-8.711 0,-4.803 -3.908,-8.711 -8.711,-8.711 -4.803,0 -8.711,3.908 -8.711,8.711 0,4.803 3.908,8.711 8.711,8.711 z"
           id="path16"
           style="fill:#f99500;fill-opacity:1" />
      </g>
      <line
         style="fill:#f99500;fill-opacity:1;stroke:#ffffff;stroke-width:0;stroke-linecap:round;stroke-linejoin:round"
         x1="53.636002"
         y1="10.204"
         x2="53.636002"
         y2="10.203"
         id="line24" />
      <line
         style="fill:#f99500;fill-opacity:1;stroke:#ffffff;stroke-width:0;stroke-linecap:round;stroke-linejoin:round"
         x1="84.363998"
         y1="39.195"
         x2="84.363998"
         y2="39.194"
         id="line28" />
    </g>
    <path
       d="m 188.73777,16.548089 c 9.77313,0.521001 20.55964,5.383322 28.1519,11.629606 10.64558,8.758294 16.98997,20.58043 18.85274,33.094189 0.14602,0.983622 -0.94182,1.265499 -1.29545,0.30209 C 230.3678,50.583849 222.9462,39.885269 212.9523,31.663124 206.21224,26.117948 197.65041,21.412387 188.4521,18.697289 c -1.38986,-0.40985 -1.33635,-2.230415 0.28567,-2.1492"
       id="path8-3"
       style="fill:#f99500;fill-opacity:1;fill-rule:evenodd;stroke:none;stroke-width:0.1355698"
       inkscape:connector-curvature="0" />
    <path
       d="m 183.82775,17.361054 c -0.0426,1.630835 4.75432,4.69857 6.90512,6.078331 0.65697,0.418259 0.32071,1.012743 -0.52448,0.944032 -5.49049,-0.413494 -10.61495,-5.813947 -10.60542,-7.181636 0.0133,-1.372243 5.55712,-6.401641 11.07044,-6.443161 0.84622,-0.0068 1.14101,0.610136 0.4603,0.982391 -2.24092,1.228355 -7.26416,3.980885 -7.30596,5.620043"
       id="path10-2"
       style="fill:#f99500;fill-opacity:1;fill-rule:evenodd;stroke:none;stroke-width:0.1355698"
       inkscape:connector-curvature="0" />
    <path
       d="m 111.47195,81.126815 c -5.41873,-8.753142 -7.69674,-20.988402 -6.86141,-31.296085 1.17127,-14.453044 7.57137,-27.031274 17.25994,-36.154419 0.76182,-0.71673 1.65847,0.05344 1.0388,0.937382 -7.0418,10.122324 -11.82472,22.956177 -12.92429,36.524466 -0.74157,9.150692 0.3359,19.370518 3.5146,28.944794 0.48066,1.446409 -1.12377,2.493431 -2.02764,1.04386"
       id="path8-0"
       style="fill:#f99500;fill-opacity:1;fill-rule:evenodd;stroke:none;stroke-width:0.14260194"
       inkscape:connector-curvature="0" />
    <path
       d="m 115.12247,84.87903 c 1.43404,-0.942503 1.20286,-6.927397 1.10292,-9.613414 -0.0333,-0.818525 0.68204,-0.88511 1.13022,-0.113924 2.9399,4.990008 1.35315,12.658519 0.16627,13.47159 -1.19307,0.812556 -8.86561,-0.955127 -12.21217,-5.691602 -0.51406,-0.726706 -0.15825,-1.351784 0.57201,-0.987442 2.40649,1.197681 7.80004,3.882976 9.24075,2.934792"
       id="path10-6"
       style="fill:#f99500;fill-opacity:1;fill-rule:evenodd;stroke:none;stroke-width:0.14260194"
       inkscape:connector-curvature="0" />
    <path
       d="m 23.750263,138.10242 c 2.109578,-11.04574 9.318938,-22.5716 17.608288,-30.2461 11.623008,-10.760883 26.066775,-16.149539 40.602562,-16.328601 1.142497,-0.01363 1.294618,1.268609 0.142918,1.521726 -13.14505,2.938805 -26.476801,9.728175 -37.388295,19.830325 -7.358923,6.81308 -14.04462,15.83048 -18.562961,25.88136 -0.682265,1.51874 -2.746651,1.17533 -2.402512,-0.65871"
       id="path8-3-5"
       style="display:inline;fill:#f99500;fill-opacity:1;fill-rule:evenodd;stroke:none;stroke-width:0.15577133"
       inkscape:connector-curvature="0" />
    <path
       d="m 23.91396,143.81856 c 1.850069,0.30158 6.086958,-4.68369 7.991521,-6.91827 0.57812,-0.68305 1.202757,-0.20798 0.99339,0.7436 -1.32268,6.18669 -8.266153,11.18287 -9.82177,10.95981 -1.560225,-0.22801 -6.42592,-7.32001 -5.617727,-13.60329 0.123511,-0.96447 0.871674,-1.20435 1.189861,-0.37161 1.05076,2.74185 3.405052,8.88782 5.264725,9.18976"
       id="path10-2-4"
       style="display:inline;fill:#f99500;fill-opacity:1;fill-rule:evenodd;stroke:none;stroke-width:0.15577133"
       inkscape:connector-curvature="0" />
    <g
       id="g995-9-3-7"
       transform="matrix(0.05537397,0.01593163,-0.01593163,0.05537397,84.539249,115.53337)"
       style="display:inline;fill:#f99500;fill-opacity:1">
      <path
         class="cls-1"
         inkscape:connector-curvature="0"
         style="display:inline;fill:#f99500;fill-opacity:1;stroke-width:1.51906657"
         id="path21020-20-1-6"
         d="M 490.0657,156.02509 A 233.31585,223.66064 0 0 0 273.1338,-67.070374 v 31.47134 c 102.95811,8.016564 184.17958,90.88909 184.17958,191.624124 0,100.73505 -81.22147,183.60757 -184.17958,191.62414 v 31.47134 A 233.31585,223.66064 0 0 0 490.06574,156.02509 Z" />
      <path
         class="cls-1"
         inkscape:connector-curvature="0"
         style="display:inline;fill:#f99500;fill-opacity:1;stroke-width:1.51906657"
         id="path21022-23-9-5"
         d="m 56.201872,156.02509 c 0,-100.735034 81.221468,-183.607558 184.179558,-191.624122 v -31.471342 a 233.30034,223.64577 0 0 0 0,446.190934 V 347.64922 C 137.42334,339.63266 56.201872,256.76013 56.201872,156.02508 Z" />
      <path
         class="cls-1"
         inkscape:connector-curvature="0"
         style="display:inline;fill:#f99500;fill-opacity:1;stroke-width:1.51906657"
         id="path21024-7-4-6"
         d="M 176.94027,23.506385 A 159.65024,153.0435 0 0 0 111.0477,218.49182 l 28.57879,-15.8249 A 126.85134,121.6019 0 0 1 357.50484,82.076386 l 28.59429,-15.81003 A 159.65024,153.0435 0 0 0 176.94026,23.506385 Z" />
      <path
         class="cls-1"
         inkscape:connector-curvature="0"
         style="display:inline;fill:#f99500;fill-opacity:1;stroke-width:1.51906657"
         id="path21026-5-7-9"
         d="M 320.20657,261.37075 A 127.08407,121.82499 0 0 1 155.99491,229.9143 l -28.5943,15.81003 A 159.65024,153.0435 0 0 0 402.46755,93.558336 l -28.57879,15.765424 a 127.06855,121.81012 0 0 1 -53.68219,152.04699 z" />
      <path
         class="cls-1"
         inkscape:connector-curvature="0"
         style="display:inline;fill:#f99500;fill-opacity:1;stroke-width:1.51906657"
         id="path21028-9-8-3"
         d="M 299.72664,84.634546 A 85.969086,82.411466 0 0 0 191.86576,101.96163 l 29.23043,16.18185 a 53.201228,50.999624 0 0 1 87.69126,48.5307 l 29.23041,16.16698 A 85.969086,82.411466 0 0 0 299.72664,84.634546 Z" />
      <path
         class="cls-1"
         inkscape:connector-curvature="0"
         style="display:inline;fill:#f99500;fill-opacity:1;stroke-width:1.51906657"
         id="path21030-2-4-7"
         d="m 231.7085,200.19801 a 53.294318,51.088862 0 0 1 -25.42922,-54.85173 l -29.23041,-16.09262 a 85.953577,82.396595 0 0 0 146.1521,80.87955 l -29.24594,-16.18186 a 53.263289,51.059116 0 0 1 -62.24653,6.24666 z" />
    </g>
    <g
       id="g995-9-3-4"
       transform="matrix(0.06143049,0.01767415,-0.01767415,0.06143049,138.24463,91.624118)"
       style="display:inline;fill:#f99500;fill-opacity:1">
      <path
         class="cls-1"
         inkscape:connector-curvature="0"
         style="display:inline;fill:#f99500;fill-opacity:1;stroke-width:1.51906657"
         id="path21020-20-1-5"
         d="M 490.0657,156.02509 A 233.31585,223.66064 0 0 0 273.1338,-67.070374 v 31.47134 c 102.95811,8.016564 184.17958,90.88909 184.17958,191.624124 0,100.73505 -81.22147,183.60757 -184.17958,191.62414 v 31.47134 A 233.31585,223.66064 0 0 0 490.06574,156.02509 Z" />
      <path
         class="cls-1"
         inkscape:connector-curvature="0"
         style="display:inline;fill:#f99500;fill-opacity:1;stroke-width:1.51906657"
         id="path21022-23-9-2"
         d="m 56.201872,156.02509 c 0,-100.735034 81.221468,-183.607558 184.179558,-191.624122 v -31.471342 a 233.30034,223.64577 0 0 0 0,446.190934 V 347.64922 C 137.42334,339.63266 56.201872,256.76013 56.201872,156.02508 Z" />
      <path
         class="cls-1"
         inkscape:connector-curvature="0"
         style="display:inline;fill:#f99500;fill-opacity:1;stroke-width:1.51906657"
         id="path21024-7-4-5"
         d="M 176.94027,23.506385 A 159.65024,153.0435 0 0 0 111.0477,218.49182 l 28.57879,-15.8249 A 126.85134,121.6019 0 0 1 357.50484,82.076386 l 28.59429,-15.81003 A 159.65024,153.0435 0 0 0 176.94026,23.506385 Z" />
      <path
         class="cls-1"
         inkscape:connector-curvature="0"
         style="display:inline;fill:#f99500;fill-opacity:1;stroke-width:1.51906657"
         id="path21026-5-7-4"
         d="M 320.20657,261.37075 A 127.08407,121.82499 0 0 1 155.99491,229.9143 l -28.5943,15.81003 A 159.65024,153.0435 0 0 0 402.46755,93.558336 l -28.57879,15.765424 a 127.06855,121.81012 0 0 1 -53.68219,152.04699 z" />
      <path
         class="cls-1"
         inkscape:connector-curvature="0"
         style="display:inline;fill:#f99500;fill-opacity:1;stroke-width:1.51906657"
         id="path21028-9-8-7"
         d="M 299.72664,84.634546 A 85.969086,82.411466 0 0 0 191.86576,101.96163 l 29.23043,16.18185 a 53.201228,50.999624 0 0 1 87.69126,48.5307 l 29.23041,16.16698 A 85.969086,82.411466 0 0 0 299.72664,84.634546 Z" />
      <path
         class="cls-1"
         inkscape:connector-curvature="0"
         style="display:inline;fill:#f99500;fill-opacity:1;stroke-width:1.51906657"
         id="path21030-2-4-4"
         d="m 231.7085,200.19801 a 53.294318,51.088862 0 0 1 -25.42922,-54.85173 l -29.23041,-16.09262 a 85.953577,82.396595 0 0 0 146.1521,80.87955 l -29.24594,-16.18186 a 53.263289,51.059116 0 0 1 -62.24653,6.24666 z" />
    </g>
    <path
       d="m 218.79117,103.43678 c -1.76397,9.62673 -7.96309,19.70453 -15.12721,26.43757 -10.04525,9.44081 -22.58038,14.22461 -35.22954,14.47516 -0.99421,0.0193 -1.13496,-1.09562 -0.13429,-1.32341 11.42083,-2.64326 22.97906,-8.63884 32.40938,-17.50173 6.35999,-5.97729 12.11972,-13.86859 15.98649,-22.6452 0.58387,-1.32619 2.38272,-1.04078 2.09517,0.55761"
       id="path8-3-4"
       style="display:inline;fill:#f99500;fill-opacity:1;fill-rule:evenodd;stroke:none;stroke-width:0.1355698"
       inkscape:connector-curvature="0" />
    <path
       d="m 218.61146,98.463165 c -1.61206,-0.2504 -5.26689,4.115825 -6.90985,6.072955 -0.49868,0.59822 -1.04539,0.18884 -0.86938,-0.64067 1.1108,-5.392825 7.12107,-9.786175 8.47636,-9.602185 1.35933,0.18828 5.64011,6.328635 4.97769,11.802175 -0.10121,0.84017 -0.75076,1.05381 -1.0331,0.33116 -0.93233,-2.37935 -3.0213,-7.712785 -4.64172,-7.963435"
       id="path10-2-3"
       style="display:inline;fill:#f99500;fill-opacity:1;fill-rule:evenodd;stroke:none;stroke-width:0.1355698"
       inkscape:connector-curvature="0" />
    <g
       id="g995-9-3-4-8"
       transform="matrix(0.04868556,0.01400731,-0.01400731,0.04868556,175.49195,56.41402)"
       style="display:inline;fill:#f99500;fill-opacity:1">
      <path
         class="cls-1"
         inkscape:connector-curvature="0"
         style="display:inline;fill:#f99500;fill-opacity:1;stroke-width:1.51906657"
         id="path21020-20-1-5-6"
         d="M 490.0657,156.02509 A 233.31585,223.66064 0 0 0 273.1338,-67.070374 v 31.47134 c 102.95811,8.016564 184.17958,90.88909 184.17958,191.624124 0,100.73505 -81.22147,183.60757 -184.17958,191.62414 v 31.47134 A 233.31585,223.66064 0 0 0 490.06574,156.02509 Z" />
      <path
         class="cls-1"
         inkscape:connector-curvature="0"
         style="display:inline;fill:#f99500;fill-opacity:1;stroke-width:1.51906657"
         id="path21022-23-9-2-8"
         d="m 56.201872,156.02509 c 0,-100.735034 81.221468,-183.607558 184.179558,-191.624122 v -31.471342 a 233.30034,223.64577 0 0 0 0,446.190934 V 347.64922 C 137.42334,339.63266 56.201872,256.76013 56.201872,156.02508 Z" />
      <path
         class="cls-1"
         inkscape:connector-curvature="0"
         style="display:inline;fill:#f99500;fill-opacity:1;stroke-width:1.51906657"
         id="path21024-7-4-5-8"
         d="M 176.94027,23.506385 A 159.65024,153.0435 0 0 0 111.0477,218.49182 l 28.57879,-15.8249 A 126.85134,121.6019 0 0 1 357.50484,82.076386 l 28.59429,-15.81003 A 159.65024,153.0435 0 0 0 176.94026,23.506385 Z" />
      <path
         class="cls-1"
         inkscape:connector-curvature="0"
         style="display:inline;fill:#f99500;fill-opacity:1;stroke-width:1.51906657"
         id="path21026-5-7-4-4"
         d="M 320.20657,261.37075 A 127.08407,121.82499 0 0 1 155.99491,229.9143 l -28.5943,15.81003 A 159.65024,153.0435 0 0 0 402.46755,93.558336 l -28.57879,15.765424 a 127.06855,121.81012 0 0 1 -53.68219,152.04699 z" />
      <path
         class="cls-1"
         inkscape:connector-curvature="0"
         style="display:inline;fill:#f99500;fill-opacity:1;stroke-width:1.51906657"
         id="path21028-9-8-7-3"
         d="M 299.72664,84.634546 A 85.969086,82.411466 0 0 0 191.86576,101.96163 l 29.23043,16.18185 a 53.201228,50.999624 0 0 1 87.69126,48.5307 l 29.23041,16.16698 A 85.969086,82.411466 0 0 0 299.72664,84.634546 Z" />
      <path
         class="cls-1"
         inkscape:connector-curvature="0"
         style="display:inline;fill:#f99500;fill-opacity:1;stroke-width:1.51906657"
         id="path21030-2-4-4-1"
         d="m 231.7085,200.19801 a 53.294318,51.088862 0 0 1 -25.42922,-54.85173 l -29.23041,-16.09262 a 85.953577,82.396595 0 0 0 146.1521,80.87955 l -29.24594,-16.18186 a 53.263289,51.059116 0 0 1 -62.24653,6.24666 z" />
    </g>
    <g
       id="g995-9-3-4-4"
       transform="matrix(0.05152307,0.01482369,-0.01482369,0.05152307,3.627387,67.837172)"
       style="display:inline;fill:#f99500;fill-opacity:1">
      <path
         class="cls-1"
         inkscape:connector-curvature="0"
         style="display:inline;fill:#f99500;fill-opacity:1;stroke-width:1.51906657"
         id="path21020-20-1-5-9"
         d="M 490.0657,156.02509 A 233.31585,223.66064 0 0 0 273.1338,-67.070374 v 31.47134 c 102.95811,8.016564 184.17958,90.88909 184.17958,191.624124 0,100.73505 -81.22147,183.60757 -184.17958,191.62414 v 31.47134 A 233.31585,223.66064 0 0 0 490.06574,156.02509 Z" />
      <path
         class="cls-1"
         inkscape:connector-curvature="0"
         style="display:inline;fill:#f99500;fill-opacity:1;stroke-width:1.51906657"
         id="path21022-23-9-2-2"
         d="m 56.201872,156.02509 c 0,-100.735034 81.221468,-183.607558 184.179558,-191.624122 v -31.471342 a 233.30034,223.64577 0 0 0 0,446.190934 V 347.64922 C 137.42334,339.63266 56.201872,256.76013 56.201872,156.02508 Z" />
      <path
         class="cls-1"
         inkscape:connector-curvature="0"
         style="display:inline;fill:#f99500;fill-opacity:1;stroke-width:1.51906657"
         id="path21024-7-4-5-0"
         d="M 176.94027,23.506385 A 159.65024,153.0435 0 0 0 111.0477,218.49182 l 28.57879,-15.8249 A 126.85134,121.6019 0 0 1 357.50484,82.076386 l 28.59429,-15.81003 A 159.65024,153.0435 0 0 0 176.94026,23.506385 Z" />
      <path
         class="cls-1"
         inkscape:connector-curvature="0"
         style="display:inline;fill:#f99500;fill-opacity:1;stroke-width:1.51906657"
         id="path21026-5-7-4-6"
         d="M 320.20657,261.37075 A 127.08407,121.82499 0 0 1 155.99491,229.9143 l -28.5943,15.81003 A 159.65024,153.0435 0 0 0 402.46755,93.558336 l -28.57879,15.765424 a 127.06855,121.81012 0 0 1 -53.68219,152.04699 z" />
      <path
         class="cls-1"
         inkscape:connector-curvature="0"
         style="display:inline;fill:#f99500;fill-opacity:1;stroke-width:1.51906657"
         id="path21028-9-8-7-8"
         d="M 299.72664,84.634546 A 85.969086,82.411466 0 0 0 191.86576,101.96163 l 29.23043,16.18185 a 53.201228,50.999624 0 0 1 87.69126,48.5307 l 29.23041,16.16698 A 85.969086,82.411466 0 0 0 299.72664,84.634546 Z" />
      <path
         class="cls-1"
         inkscape:connector-curvature="0"
         style="display:inline;fill:#f99500;fill-opacity:1;stroke-width:1.51906657"
         id="path21030-2-4-4-9"
         d="m 231.7085,200.19801 a 53.294318,51.088862 0 0 1 -25.42922,-54.85173 l -29.23041,-16.09262 a 85.953577,82.396595 0 0 0 146.1521,80.87955 l -29.24594,-16.18186 a 53.263289,51.059116 0 0 1 -62.24653,6.24666 z" />
    </g>
    <path
       d="m 9.71018,41.545993 c 0.77159,-5.87721 4.21208,-12.16338 8.33895,-16.45595 5.78653,-6.01888 13.22206,-9.29721 20.86568,-9.83693 0.6008,-0.0422 0.72014,0.6279 0.12181,0.7964 -6.82719,1.94934 -13.63462,5.93068 -19.06692,11.58112 -3.66365,3.81075 -6.90547,8.76084 -8.9751,14.18835 -0.31248,0.82012 -1.40934,0.70268 -1.28445,-0.27299"
       id="path8-3-4-2"
       style="display:inline;fill:#f99500;fill-opacity:1;fill-rule:evenodd;stroke:none;stroke-width:0.08210985"
       inkscape:connector-curvature="0" />
    <path
       d="m 9.97151,44.548963 c 0.98279,0.10198 3.05957,-2.65125 3.99332,-3.8855 0.28328,-0.37716 0.62654,-0.14632 0.54553,0.36085 -0.50641,3.29614 -4.00713,6.13805 -4.83257,6.06836 -0.82802,-0.0722 -3.6058398,-3.65504 -3.3731198,-6.98624 0.0354,-0.51131 0.42179,-0.66047 0.61475,-0.23202 0.63697,1.41063 2.0642198,4.57266 3.0520898,4.67455"
       id="path10-2-3-6"
       style="display:inline;fill:#f99500;fill-opacity:1;fill-rule:evenodd;stroke:none;stroke-width:0.08210985"
       inkscape:connector-curvature="0" />
  </g>
  <g
     inkscape:groupmode="layer"
     id="layer3"
     inkscape:label="Layer 2"
     transform="translate(20.85965)">
    <g
       transform="matrix(2.3290071,0.2101653,-0.2101653,2.3290071,-0.19549431,-0.65399895)"
       id="g8"
       style="fill:#222e3d;fill-opacity:1;stroke:none;stroke-opacity:1">
      <g
         id="g6"
         style="fill:#222e3d;fill-opacity:1;stroke:none;stroke-opacity:1" />
    </g>
  </g>
</svg>
